<?xml version="1.0" standalone="no"?>
<!DOCTYPE svg PUBLIC "-//W3C//DTD SVG 20010904//EN"
 "http://www.w3.org/TR/2001/REC-SVG-20010904/DTD/svg10.dtd">
<svg version="1.0" xmlns="http://www.w3.org/2000/svg"
 width="1280.000000pt" height="1270.000000pt" viewBox="0 0 1280.000000 1270.000000"
 preserveAspectRatio="xMidYMid meet">
<metadata>
Created by potrace 1.15, written by Peter Selinger 2001-2017
</metadata>
<g transform="translate(0.000000,1270.000000) scale(0.100000,-0.100000)"
fill="#000000" stroke="none">
<path d="M6137 12685 c-547 -92 -935 -599 -877 -1144 42 -396 278 -715 648
-876 53 -23 117 -52 142 -65 25 -13 69 -31 99 -40 l54 -17 -74 -17 c-41 -9
-138 -28 -215 -41 -172 -29 -263 -52 -414 -103 -423 -144 -817 -415 -1108
-763 -166 -199 -342 -505 -426 -741 l-38 -106 -97 -34 c-222 -76 -535 -254
-738 -420 -171 -139 -364 -353 -490 -543 -201 -301 -315 -593 -391 -995 l-9
-45 -16 39 c-32 73 -125 201 -203 280 -94 94 -211 173 -331 225 -48 21 -122
55 -164 74 -243 115 -526 125 -799 29 -266 -93 -507 -330 -616 -605 -52 -133
-69 -230 -68 -397 1 -122 5 -160 27 -241 65 -246 196 -444 390 -590 97 -73
364 -205 504 -249 300 -93 623 -48 888 126 159 104 271 229 363 402 l49 92 12
-57 c96 -443 319 -861 636 -1191 256 -267 492 -427 900 -612 l160 -72 40 -106
c21 -59 68 -165 104 -237 250 -493 646 -884 1144 -1128 371 -182 554 -246 867
-301 l125 -23 -60 -7 c-136 -18 -311 -86 -439 -171 -314 -208 -499 -605 -457
-978 17 -144 43 -235 106 -362 110 -224 278 -388 504 -493 42 -19 112 -52 156
-73 209 -98 415 -129 631 -94 718 116 1107 903 763 1543 -112 209 -298 377
-527 477 -53 23 -113 50 -132 60 -19 10 -63 28 -98 41 l-63 22 73 16 c40 9
137 28 214 41 172 29 263 52 414 103 424 144 813 412 1108 763 165 198 342
504 426 741 l38 106 97 34 c134 46 385 171 516 258 346 228 624 528 822 885
136 245 218 482 281 815 l9 45 16 -39 c32 -73 125 -201 203 -280 94 -94 211
-173 331 -225 48 -21 122 -55 164 -74 162 -77 363 -109 542 -89 259 30 475
138 653 325 138 145 230 317 271 508 28 131 24 345 -10 470 -65 246 -196 444
-390 590 -96 72 -364 205 -500 247 -304 95 -626 51 -892 -124 -159 -104 -271
-229 -363 -402 l-49 -92 -12 57 c-96 443 -319 861 -636 1191 -256 267 -492
427 -900 612 l-160 72 -40 106 c-21 59 -68 166 -104 237 -247 489 -644 883
-1133 1123 -374 185 -565 251 -878 306 l-125 23 60 7 c193 25 405 127 558 266
379 348 453 917 175 1351 -98 153 -249 288 -413 369 -270 134 -345 162 -490
185 -108 18 -232 18 -338 0z m1583 -3217 c199 -194 361 -435 464 -688 24 -59
26 -74 26 -227 l0 -163 33 0 c46 0 58 -11 64 -59 l6 -41 83 0 c91 0 86 3 96
-65 3 -19 12 -20 178 -23 l175 -3 75 -40 c210 -114 429 -296 586 -489 61 -76
144 -192 144 -203 0 -4 -35 10 -77 30 -459 213 -927 325 -1499 358 l-111 7 -7
147 c-25 563 -139 1078 -326 1486 -48 104 -41 102 90 -27z m-2666 -183 c-119
-339 -196 -787 -210 -1220 l-7 -205 -111 0 c-416 0 -897 -77 -1278 -203 -95
-32 -124 -38 -118 -26 18 32 250 246 330 303 125 90 280 179 391 225 l99 42
168 2 167 2 8 46 c9 46 10 47 52 54 l44 6 3 172 3 172 48 105 c87 193 223 399
359 545 44 47 82 84 84 83 1 -2 -13 -48 -32 -103z m1627 -750 c163 -19 344
-66 444 -115 117 -57 255 -160 376 -280 101 -100 218 -243 223 -272 2 -17 47
-62 64 -64 29 -5 172 -122 272 -223 483 -489 622 -1216 354 -1851 -85 -203
-215 -392 -376 -551 -81 -80 -237 -204 -256 -204 -14 0 -64 -44 -58 -53 13
-21 -161 -227 -287 -340 -428 -383 -1018 -519 -1587 -366 -163 44 -285 112
-451 250 -122 101 -316 322 -323 366 -2 17 -47 62 -64 64 -29 5 -172 122 -272
223 -483 489 -622 1216 -354 1851 84 199 213 390 371 546 87 86 251 216 264
208 10 -6 61 45 55 55 -3 4 20 41 51 82 284 378 696 617 1163 674 144 18 243
18 391 0z m-1659 -626 l-3 -126 -112 -6 c-62 -3 -114 -3 -117 0 -6 5 30 28 45
28 14 0 61 48 57 58 -3 10 128 185 132 175 0 -2 0 -60 -2 -129z m2828 -41 c0
-5 -16 -8 -35 -8 l-35 0 0 48 0 47 35 -40 c19 -22 34 -43 35 -47z m-4430
-2748 c372 -154 814 -247 1306 -276 l112 -6 7 -162 c23 -543 139 -1067 325
-1471 48 -104 41 -102 -90 27 -196 191 -358 430 -460 677 -29 72 -30 78 -30
237 l0 164 -32 0 c-47 0 -59 11 -65 59 l-6 41 -83 0 c-91 0 -86 -3 -96 65 -3
19 -12 20 -178 23 l-175 3 -75 40 c-210 114 -429 296 -586 489 -61 76 -144
192 -144 203 0 4 35 -10 78 -30 42 -19 129 -57 192 -83z m5935 -168 c-186
-181 -380 -313 -597 -408 l-102 -45 -171 -2 -170 -2 -8 -46 c-9 -46 -10 -47
-52 -54 l-44 -6 -3 -172 -3 -172 -51 -111 c-91 -200 -225 -402 -365 -549 -40
-41 -73 -74 -75 -73 -1 2 13 48 32 103 119 339 196 787 210 1220 l7 205 111 0
c419 1 901 77 1276 203 69 23 127 41 130 39 3 -2 -54 -61 -125 -130z m-1345
-31 c0 -9 -27 -24 -45 -26 -14 -1 -61 -48 -57 -58 3 -9 -100 -148 -125 -168
-15 -12 -16 -12 -10 4 4 10 7 70 7 132 l0 114 88 4 c48 1 99 4 115 5 15 1 27
-2 27 -7z m-2990 -128 l0 -48 -35 40 c-19 22 -34 43 -35 48 0 4 16 7 35 7 l35
0 0 -47z"/>
</g>
</svg>
